<svg width="5713" height="1024" viewBox="0 0 5713 1024" fill="none" xmlns="http://www.w3.org/2000/svg">
<g clip-path="url(#clip0)">
<path fill-rule="evenodd" clip-rule="evenodd" d="M615 930H527H462H452H298.383H285H198.773V73.3594H433.734C538.812 73.3594 616.352 93.4766 666.352 133.711C716.742 173.945 741.938 234.492 741.938 315.352C741.938 428.633 684.516 505.195 569.672 545.039L802.289 930H709H684.516H615Z" fill="#90CAF9"/>
<path fill-rule="evenodd" clip-rule="evenodd" d="M357 72H197V930H354H357H627V770H357V72Z" fill="#60B3F6"/>
<path d="M1525.4 621.8C1701.35 621.8 1787.6 506.8 1786.45 375.7C1785.3 250.35 1696.75 125 1521.95 125C1403.5 125 1286.2 125 1167.75 125V930H1229.85V625.25H1449.5L1727.8 930H1809.45L1525.4 621.8ZM1229.85 182.5H1521.95C1655.35 182.5 1719.75 280.25 1718.6 374.55C1717.45 487.25 1655.35 566.6 1515.05 566.6H1229.85V182.5ZM2159.53 938.05C2250.38 938.05 2349.28 901.25 2404.48 828.8L2364.23 796.6C2321.68 852.95 2234.28 882.85 2159.53 882.85C2042.23 882.85 1939.88 805.8 1928.38 672.4H2440.13C2461.98 450.45 2319.38 352.7 2159.53 352.7C1999.68 352.7 1870.88 475.75 1870.88 645.95C1870.88 826.5 1999.68 938.05 2159.53 938.05ZM1928.38 622.95C1941.03 483.8 2042.23 404.45 2159.53 404.45C2296.38 404.45 2388.38 482.65 2389.53 622.95H1928.38ZM2699.74 930V415.95H2887.19V366.5H2699.74V315.9C2699.74 217 2741.14 173.3 2812.44 173.3C2846.94 173.3 2868.79 183.65 2899.84 202.05L2927.44 160.65C2895.24 136.5 2857.29 121.55 2814.74 121.55C2689.39 121.55 2644.54 203.2 2644.54 315.9V366.5H2528.39V415.95H2644.54V930H2699.74ZM3275.83 938.05C3366.68 938.05 3465.58 901.25 3520.78 828.8L3480.53 796.6C3437.98 852.95 3350.58 882.85 3275.83 882.85C3158.53 882.85 3056.18 805.8 3044.68 672.4H3556.43C3578.28 450.45 3435.68 352.7 3275.83 352.7C3115.98 352.7 2987.18 475.75 2987.18 645.95C2987.18 826.5 3115.98 938.05 3275.83 938.05ZM3044.68 622.95C3057.33 483.8 3158.53 404.45 3275.83 404.45C3412.68 404.45 3504.68 482.65 3505.83 622.95H3044.68ZM3702.2 361.9V930H3758.55V598.8C3758.55 495.3 3840.2 410.2 3946 409.05C3979.35 409.05 4012.7 417.1 4042.6 435.5L4067.9 389.5C4029.95 366.5 3988.55 355 3946 356.15C3873.55 356.15 3793.05 386.05 3757.4 463.1L3755.1 361.9H3702.2ZM4152.54 125V930H4208.89V125H4152.54ZM4422.27 359.6V930H4365.92V359.6H4422.27ZM4349.82 176.75C4349.82 236.55 4440.67 236.55 4440.67 176.75C4440.67 116.95 4349.82 116.95 4349.82 176.75ZM5008.14 428.6C4951.79 375.7 4879.34 352.7 4796.54 352.7C4681.54 351.55 4569.99 399.85 4571.14 511.4C4572.29 625.25 4681.54 645.95 4791.94 664.35C4885.09 679.3 4979.39 695.4 4977.09 777.05C4973.64 866.75 4868.99 885.15 4799.99 885.15C4724.09 885.15 4638.99 856.4 4591.84 788.55L4550.44 825.35C4599.89 901.25 4698.79 939.2 4798.84 939.2C4898.89 939.2 5028.84 905.85 5032.29 780.5C5038.04 648.25 4898.89 631 4797.69 613.75C4726.39 601.1 4627.49 586.15 4625.19 510.25C4622.89 437.8 4707.99 404.45 4796.54 405.6C4859.79 405.6 4916.14 414.8 4973.64 465.4L5008.14 428.6ZM5232.42 196.3V361.9H5111.67V409.05H5232.42V755.2C5232.42 866.75 5271.52 938.05 5392.27 938.05C5427.92 938.05 5463.57 926.55 5499.22 909.3L5479.67 863.3C5450.92 877.1 5419.87 886.3 5392.27 886.3C5303.72 886.3 5287.62 832.25 5287.62 755.2V409.05H5480.82V361.9H5287.62V190.55L5232.42 196.3Z" fill="#424242"/>
</g>
<defs>
<clipPath id="clip0">
<rect width="5713" height="1024" fill="white"/>
</clipPath>
</defs>
</svg>
